<?xml version="1.0" encoding="UTF-8"?>
<svg width="24px" height="24px" viewBox="0 0 24 24" version="1.1" xmlns="http://www.w3.org/2000/svg" xmlns:xlink="http://www.w3.org/1999/xlink">
    <title>6F85A77C-0FE3-4E46-A23C-4EDE5990C1B7</title>
    <g id="Nurse-App" stroke="none" stroke-width="1" fill="none" fill-rule="evenodd">
        <g id="Sidebar" transform="translate(-16.000000, -204.000000)">
            <g id="Group-4" transform="translate(0.000000, 184.000000)">
                <g id="Menu/Appointment-on" transform="translate(16.000000, 20.000000)">
                    <rect id="Rectangle" x="0" y="0" width="24" height="24"></rect>
                    <path d="M2,9 L22,9 L22,21 C22,21.5522847 21.5522847,22 21,22 L3,22 C2.44771525,22 2,21.5522847 2,21 L2,9 L2,9 Z" id="Rectangle" fill="#1AD79E"></path>
                    <path d="M3,3 L21,3 C21.5522847,3 22,3.44771525 22,4 L22,7 L22,7 L2,7 L2,4 C2,3.44771525 2.44771525,3 3,3 Z" id="Rectangle-Copy-11" fill="#FFFFFF"></path>
                    <rect id="Rectangle" fill="#FFFFFF" x="6" y="1" width="3" height="4" rx="1"></rect>
                    <rect id="Rectangle-Copy" fill="#FFFFFF" x="6" y="12" width="4" height="4" rx="1"></rect>
                    <rect id="Rectangle-Copy-6" fill="#FFFFFF" x="15" y="1" width="3" height="4" rx="1"></rect>
                </g>
            </g>
        </g>
    </g>
</svg>